<svg xmlns="http://www.w3.org/2000/svg" viewBox="508 252 1024 900">
  <rect x="508" y="252" width="1024" height="900" fill="#1A1A1A"/>
  <path fill="#CEA437" d="M917.74,952.98c4.78-0.46,9.55-0.93,14.33-1.39c6.44-0.49,12.88-1.11,19.33-1.43c25.94-1.31,51.9-2.34,77.88-2.62c47.48-0.51,94.95,0.16,142.38,2.41c22.77,1.08,45.55,2.3,68.28,4.07c21.07,1.64,42.08,3.97,63.01,7.01c3.94,0.95,7.88,1.9,11.82,2.85c-3.55-2.77-7.73-3.62-11.85-4.67c-6.68-2.03-13.36-4.1-20.05-6.1c-22.04-6.58-44.49-11.42-67.18-15.06c-4.25-0.68-5.69-2.26-5.49-6.66c0.37-8.31,0.03-16.66,0.03-24.99c-0.02-51.99-0.05-103.99,0.04-155.98c0.01-3.5-0.49-4.93-4.52-4.76c-8.48,0.37-17,0.33-25.48-0.04c-3.96-0.17-4.63,1.18-4.59,4.75c0.19,15,0.08,29.99,0.08,44.99c-0.01,44.33-0.02,88.65-0.05,132.98c0,2.01,0.69,4.89-3.06,3.86c-2.52-0.69-6.79,1.58-6.51-4.13c0.31-6.48,0.02-12.99,0.03-19.49c0.09-52.82,0.15-105.65,0.35-158.47c0.01-3.42-0.81-4.5-4.33-4.39c-8.16,0.26-16.34,0.3-24.49-0.06c-4.46-0.2-5.77,1.01-5.76,5.66c0.21,57.49,0.12,114.98,0.35,172.48c0.02,4.57-1.16,5.53-5.47,5.25c-29.78-1.94-59.6-1.9-89.42-1.93c-3.65,0-7.3-0.16-10.95-0.25c2.43-1.03,4.81-2.18,7.29-3.06c20.54-7.3,40.69-15.49,58.76-27.94c14.43-9.95,25.93-21.26,24.23-41.39c-1.47-17.44-14.89-33.77-32.83-36.73c-11.76-5.64-24.32-9-36.65-13.02c-8.88-2.9-17.63-6.15-25.46-11.34c-9.31-6.16-9.94-14.45-1.6-21.81c5.27-4.65,11.41-8.04,17.86-10.84c19.76-8.56,40.31-14.55,61.23-19.54c39.29-9.38,78.92-14.05,119.28-9.65c3.69,0.4,3.99-0.95,3.96-3.97c-0.11-14.16-0.04-28.32,0-42.48c0.01-3-0.58-6.12,1.71-8.8c-8.87,5.69-18.19,10.05-27.51,14.34c-38.47,17.69-78.65,30.69-118.97,43.34c-26.16,8.21-52.77,15.03-78.29,25.26c-11.99,4.8-23.28,10.75-32.42,20.11c-10.9,11.15-11.62,24.96-1.83,36.31c4.98,5.77,11.36,9.73,18.14,13.03c12.01,5.85,24.86,9.4,37.51,13.5c9.16,2.97,18.5,5.84,25.72,12.72c5.91,5.63,5.92,12.06,0.36,18.04c-4.13,4.44-9.14,7.74-14.37,10.69c-11.92,6.74-24.65,11.62-37.53,16.13c-14.14,4.95-28.54,9.01-43.01,12.84c-5.69,1.51-5.74,1.32-5.78-4.5c-0.05-9.33-0.13-18.66-0.15-27.99c-0.07-42.98-0.17-85.96-0.1-128.95c0.01-3.62-0.71-4.83-4.61-4.65c-7.64,0.37-15.34,0.34-22.98-0.07c-4.14-0.22-5.26,0.82-5.25,5.06c0.12,53.31,0.04,106.63-0.03,159.94c-0.01,9.07-0.1,9.07-9.87,10.23c0-10.69,0-21.34,0-31.98c0.01-45.82-0.02-91.63,0.13-137.45c0.01-4.3-0.74-6.13-5.59-5.84c-7.8,0.47-15.67,0.47-23.48,0.03c-4.9-0.28-5.96,1.24-5.95,6.01c0.21,57.64,0.14,115.29,0.26,172.93c0.01,3.49-0.68,4.98-4.5,5.96c-24.49,6.26-48.92,12.76-73.26,19.57c-12.77,3.57-25.64,6.98-37.63,12.87l0.07,0.15l-0.01-0.24c15.44-2.5,30.88-4.99,46.33-7.49c-0.91,3.5,0.79,4.18,3.95,4.23c12.67,0.18,25.25-1.49,37.88-1.59c16.99-0.13,33.93-1.22,50.87-2.25C898.58,955.15,908.15,953.92,917.74,952.98z"/>
  <path fill="#E5C97A" d="M1074.04,881.79c0.22,1.4-1.06,2.28-1.6,3.49c11.7,1.87,36.72-19.2,41.05-34.5c2.5,6.8-0.26,12.02-3.87,17.03c-6.76,9.36-16.55,14.7-26.39,20.01c-30.82,16.63-63.94,26.96-97.5,36.28c-33.2,9.22-67,15.63-100.88,21.5c-23.72,4.11-47.66,6.96-71.55,9.99c-3.77,0.48-8.05,1.74-11.76-0.93c30.24-6.3,60.52-12.43,90.71-18.95c42.23-9.13,84.38-18.65,125.67-31.57C1037.18,898.13,1056.21,891.45,1074.04,881.79z"/>
</svg>
